<?xml version="1.0" standalone="no"?>
<!DOCTYPE svg PUBLIC "-//W3C//DTD SVG 20010904//EN"
 "http://www.w3.org/TR/2001/REC-SVG-20010904/DTD/svg10.dtd">
<svg version="1.0" xmlns="http://www.w3.org/2000/svg"
 width="480.000000pt" height="480.000000pt" viewBox="0 0 480.000000 480.000000"
 preserveAspectRatio="xMidYMid meet">
<metadata>
Created by potrace 1.14, written by Peter Selinger 2001-2017
</metadata>
<g transform="translate(0.000000,480.000000) scale(0.100000,-0.100000)"
fill="#000000" stroke="none">
<path d="M0 2400 l0 -2400 2400 0 2400 0 0 2400 0 2400 -2400 0 -2400 0 0
-2400z m4550 -5 l0 -2155 -2145 0 -2145 0 0 2155 0 2155 2145 0 2145 0 0
-2155z"/>
<path d="M1340 3643 c1 -5 207 -564 458 -1243 l457 -1235 149 0 149 0 458
1235 c252 679 458 1238 459 1243 0 4 -80 7 -179 7 l-179 0 -44 -127 c-25 -71
-184 -530 -354 -1020 -169 -491 -311 -890 -314 -885 -4 4 -164 463 -355 1020
l-348 1012 -179 0 c-98 0 -178 -3 -178 -7z"/>
</g>
</svg>
